<svg id="Calque_1" data-name="Calque 1" xmlns="http://www.w3.org/2000/svg" viewBox="0 0 280.83 149.2"><defs><style>.cls-1{fill:#004f36;}.cls-2{fill:#008078;}.cls-3{fill:#e52420;}</style></defs><title>logo-cacf-classique-2020</title><rect class="cls-1" x="71.35" y="92.78" width="138.46" height="12.38"/><path class="cls-1" d="M316.27,379.1l9.35,23.4,16.51-8.68-14.3-31.68H307l-29.22,54.51s14.37-.44,23.57-7.37c2.33-1.37,8.88-18.59,14.89-30.17h0Z" transform="translate(-156.88 -353.73)"/><path class="cls-2" d="M342.12,393.82l-16.51,8.68c-14.13,7.23-27.54,13.58-34.77,15.62-19.06,5.49-42.28,8.78-50.62,1.4-7.84-7,10.27-36.12,44.53-42.61,5.55-1.24,8.8-.92,8.8-0.88s-2.35-10-4.18-12.06c-2.55-3.13-5.06-3.77-8.79-3.3-7.42.44-39,8.85-51.41,35.13-6.94,14.93,2.29,30,8.26,34.38,2.78,2,20.69,18.09,62.11,1.85,40.82-15.84,77.38-40.77,77.41-40.77V374.58S360.83,383.79,342.12,393.82Z" transform="translate(-156.88 -353.73)"/><path class="cls-1" d="M331.41,417.71c1.53,3.59,5.92,14,7,17a5.8,5.8,0,0,0,5.12,3.28h19l-14.18-29.39C343.23,411.54,337.5,414.62,331.41,417.71Z" transform="translate(-156.88 -353.73)"/><path class="cls-3" d="M377,368.08s-21.78,12.5-26.88,14.4c-4.69,1.85-6.45-.6-7-1.45-1.26-1.92-3.32-8.26-3.61-9.22a9.8,9.8,0,0,0,4.11-.44c3.31-.84,33.36-17.64,33.39-17.63v14.35h0Z" transform="translate(-156.88 -353.73)"/><path class="cls-1" d="M168.82,483.32a14.62,14.62,0,0,1,8.45,2.68l-1.9,2.47a10.14,10.14,0,0,0-6.31-2.19c-4.47,0-8,2.79-8,6.85s3.49,6.85,8,6.85a10.91,10.91,0,0,0,6.66-2.3l1.9,2.47a15.43,15.43,0,0,1-8.8,2.79c-6.15,0-11.94-3.63-11.94-9.83S162.68,483.32,168.82,483.32Z" transform="translate(-156.88 -353.73)"/><path class="cls-1" d="M180.6,497.13V483.65h17.17v3H184.67v4.58h12v3h-12v2.93a2.12,2.12,0,0,0,2.38,2.44h11.1v3H186.08C182.61,502.6,180.6,500.57,180.6,497.13Z" transform="translate(-156.88 -353.73)"/><path class="cls-1" d="M207,489.09V502.6h-4.06v-19H207l11.62,13.49V483.65h4.06v19h-4.06Z" transform="translate(-156.88 -353.73)"/><path class="cls-1" d="M226,486.68v-3h18.63v3h-7.28V502.6H233.3V486.68H226Z" transform="translate(-156.88 -353.73)"/><path class="cls-1" d="M248,483.65H258.3c4.77,0,8.64,1.92,8.64,6.09,0,3.25-2.38,5-5.61,5.69l6.2,7.18H262.8L257.16,496H252.1v6.61H248v-19Zm10,9.4c2.87,0,4.71-1.19,4.71-3.25s-1.76-3.11-4.74-3.11H252.1V493H258Z" transform="translate(-156.88 -353.73)"/><path class="cls-1" d="M271.06,497.13V483.65h17.17v3H275.12v4.58h12v3h-12v2.93a2.12,2.12,0,0,0,2.38,2.44h11.1v3H276.53C273.06,502.6,271.06,500.57,271.06,497.13Z" transform="translate(-156.88 -353.73)"/><path class="cls-1" d="M303.36,483.65h17.17v3H307.42v5.93h11.48v3H307.42v7h-4.06v-19Z" transform="translate(-156.88 -353.73)"/><path class="cls-1" d="M324.73,483.65H335c4.77,0,8.64,1.92,8.64,6.09,0,3.25-2.38,5-5.61,5.69l6.2,7.18h-4.74L333.86,496h-5.06v6.61h-4.06v-19Zm10,9.4c2.87,0,4.71-1.19,4.71-3.25s-1.76-3.11-4.74-3.11h-5.88V493h5.9Z" transform="translate(-156.88 -353.73)"/><path class="cls-1" d="M362.45,498H352l-2.27,4.58h-4.14l9.83-19h4.14l9.83,19h-4.66Zm-1.49-3-3.74-7.53-3.74,7.53H361Z" transform="translate(-156.88 -353.73)"/><path class="cls-1" d="M376,489.09V502.6H372v-19H376l11.62,13.49V483.65h4.06v19h-4.06Z" transform="translate(-156.88 -353.73)"/><path class="cls-1" d="M407.84,483.32a14.62,14.62,0,0,1,8.45,2.68l-1.9,2.47a10.14,10.14,0,0,0-6.31-2.19c-4.47,0-8,2.79-8,6.85s3.49,6.85,8,6.85a10.92,10.92,0,0,0,6.66-2.3l1.89,2.47a15.43,15.43,0,0,1-8.8,2.79c-6.15,0-11.94-3.63-11.94-9.83S401.69,483.32,407.84,483.32Z" transform="translate(-156.88 -353.73)"/><path class="cls-1" d="M420.16,497.13V483.65h17.17v3H424.22v4.58h12v3h-12v2.93a2.12,2.12,0,0,0,2.38,2.44h11.1v3H425.63C422.17,502.6,420.16,500.57,420.16,497.13Z" transform="translate(-156.88 -353.73)"/></svg>