<svg width="202" height="63" id="Calque_1" data-name="Calque 1" xmlns="http://www.w3.org/2000/svg" viewBox="0 0 202 62.82"><defs><style>.cls-1{fill:#004876;}.cls-2{fill:#1c9cd9;}</style></defs><title>polytech</title><path class="cls-1" d="M70.84,35.66V23.77h6.67a3.1,3.1,0,0,1,2.71,1.14h0a4.47,4.47,0,0,1,.67,2.64h0a5,5,0,0,1-.44,2.27h0a3.1,3.1,0,0,1-3,1.58H73.17v4.26Zm2.33-6.31h3.16a6.73,6.73,0,0,0,1.52-.1h0a.7.7,0,0,0,.56-.49h0a2.92,2.92,0,0,0,.14-1.05h0c0-1-.14-1.51-.29-1.64h0c-.12-.15-.51-.26-1.35-.25H73.17v3.53Z"/><path class="cls-1" d="M93,23.68a5,5,0,0,1,3.44.95h0a4.16,4.16,0,0,1,1,3.2h0v3.89a4,4,0,0,1-1,3.1h0a5,5,0,0,1-3.39.92H91.4A5,5,0,0,1,88,34.82h0a4,4,0,0,1-1-3.1h0V27.83a4.16,4.16,0,0,1,1-3.2h0a5,5,0,0,1,3.44-.95H93M91.4,25.73c-1,0-1.51.13-1.72.35h0c-.23.21-.38.71-.38,1.75h0v3.89c0,1.05.2,1.48.44,1.66h0a2.82,2.82,0,0,0,1.66.31H93a2.8,2.8,0,0,0,1.66-.31h0c.25-.18.44-.61.44-1.66h0V27.83c0-1-.15-1.54-.38-1.75h0c-.2-.22-.72-.36-1.71-.35H91.4"/><path class="cls-1" d="M104.8,35.66V23.77h2.34V33.6h6.19v2.06Z"/><path class="cls-1" d="M122.2,35.65V30.77l-4.89-7h2.77l3.34,4.76,3.35-4.76h2.82l-5,7v4.88Z"/><path class="cls-1" d="M138.56,35.65V25.82h-3.94V23.77h10.21v2.05h-3.94v9.83Z"/><path class="cls-1" d="M151.35,35.66V23.77h8.76v2.05h-6.43v2.75h6.16v2h-6.16V33.6h6.43v2.06Z"/><path class="cls-1" d="M171.28,35.74h0a4.09,4.09,0,0,1-2.93-1h0a3.94,3.94,0,0,1-1.08-2.89h0V27.6A3.39,3.39,0,0,1,169,24.29h0a8.74,8.74,0,0,1,3.87-.61H174a4,4,0,0,1,3,.91h0a3.68,3.68,0,0,1,.84,2.72h0v.82h-2.33v-.78a1.94,1.94,0,0,0-.27-1.3h0c-.15-.17-.53-.33-1.39-.32H173a10,10,0,0,0-2.35.18h0a1.14,1.14,0,0,0-.86.64h0a2.43,2.43,0,0,0-.16,1h0v3a10,10,0,0,0,.14,2.13h0a1,1,0,0,0,.63.83h0a2.94,2.94,0,0,0,1.16.18h1.64a6.6,6.6,0,0,0,1.74-.15h0c.36-.12.45-.21.56-.44h0a2,2,0,0,0,.1-.76h0V31h2.34v1.5a2.82,2.82,0,0,1-1.46,2.76h0a7.24,7.24,0,0,1-3.23.5h-1.95"/><path class="cls-1" d="M193.42,35.66v-5h-6.15v5h-2.33V23.77h2.33v4.8h6.15v-4.8h2.34V35.66Z"/><path class="cls-1" d="M200.39,22.22a1.57,1.57,0,1,1-1.61,1.57A1.56,1.56,0,0,1,200.39,22.22Zm0,2.8a1.24,1.24,0,1,0-1.19-1.23A1.19,1.19,0,0,0,200.39,25Zm.82-1a.75.75,0,0,1-.76.66.87.87,0,0,1-.9-.93.86.86,0,0,1,.89-.94.73.73,0,0,1,.76.65h-.33a.4.4,0,0,0-.43-.31c-.32,0-.49.25-.49.59a.55.55,0,0,0,.5.61.38.38,0,0,0,.42-.33Z"/><path class="cls-2" d="M29.13,0A29.71,29.71,0,0,0,0,23.85H12.16A18,18,0,0,1,41.84,17a18,18,0,0,1-25.4,25.39,18,18,0,0,1-4.26-6.76H0V50.8c0,12.77,11.05,12,11.05,12v-9.5A29.72,29.72,0,1,0,29.13,0Z"/><path class="cls-2" d="M76.93,48.17H72.76l-.62,1.76H70.7l3.11-8.74h2L79,49.93H77.56Zm-.35-1-1.75-4.91-1.72,4.91Z"/><path class="cls-2" d="M89.42,41.19v8.74H87.14L84,44.58c-.14-.24-.43-.8-.89-1.68l-.3-.56h0l0,.45c0,.42,0,.88,0,1.37v5.77H81.46V41.19h2.28L86.52,46c.24.42.62,1.12,1.16,2.1l.38.69h0l0-.44c0-.43,0-.88,0-1.35V41.19Z"/><path class="cls-2" d="M95.83,45.43h3.88c0,.29,0,.77,0,1.44a12.1,12.1,0,0,1,0,1.24,2.46,2.46,0,0,1-.19.71A1.88,1.88,0,0,1,98,49.91a13.77,13.77,0,0,1-2.12.11A9.37,9.37,0,0,1,94,49.88a2.44,2.44,0,0,1-1-.5,2.56,2.56,0,0,1-.8-1.76c0-.3,0-.66,0-1.09,0-1.2,0-2,0-2.32a3.27,3.27,0,0,1,.9-2.52,2.57,2.57,0,0,1,1.51-.54c.4,0,.93,0,1.59,0s1.16,0,1.46,0a3.3,3.3,0,0,1,.79.14,1.79,1.79,0,0,1,1.27,1.63,8.19,8.19,0,0,1,0,.86H98.34a2.32,2.32,0,0,0-.2-1.08,1,1,0,0,0-.85-.4c-.28,0-.76,0-1.44,0a5.54,5.54,0,0,0-1.5.14,1.08,1.08,0,0,0-.74.9,15,15,0,0,0-.1,2.2c0,1,0,1.6,0,1.78a2.55,2.55,0,0,0,.22,1,1,1,0,0,0,.58.46,7,7,0,0,0,1.84.16,6.69,6.69,0,0,0,1.27-.09,1.09,1.09,0,0,0,.61-.28,2.64,2.64,0,0,0,.31-1.59v-.44H95.83Z"/><path class="cls-2" d="M103.71,42.32v2.6h4.34v1h-4.34V48.8h4.57v1.13h-5.94V41.19h5.92v1.13Z"/><path class="cls-2" d="M111.2,49.93V41.19h4.32a3.87,3.87,0,0,1,1.84.35,1.7,1.7,0,0,1,.79,1.05,3.91,3.91,0,0,1,.13,1.15,4.67,4.67,0,0,1-.15,1.36,1.36,1.36,0,0,1-.84.89,3,3,0,0,1-.59.14v0a1.51,1.51,0,0,1,1.1.47,1.78,1.78,0,0,1,.37,1.22v2.06h-1.38V48.15a1.46,1.46,0,0,0-.37-1.14,1.82,1.82,0,0,0-1.14-.29h-2.71v3.21Zm1.37-4.35h2.64a2.21,2.21,0,0,0,1.25-.27.91.91,0,0,0,.39-.64,3,3,0,0,0,0-.62,3.77,3.77,0,0,0-.1-1.1.86.86,0,0,0-.79-.57,3.13,3.13,0,0,0-.56,0h-2.87Z"/><path class="cls-2" d="M127.71,43.65h-1.34a2,2,0,0,0-.18-1,1,1,0,0,0-.67-.38,6.89,6.89,0,0,0-.94,0,11.32,11.32,0,0,0-1.23,0,1.42,1.42,0,0,0-.6.19c-.28.17-.42.54-.42,1.1a1.76,1.76,0,0,0,.17.86,1.06,1.06,0,0,0,.89.44c.14,0,.58,0,1.33.08a13.34,13.34,0,0,1,1.65.15,1.72,1.72,0,0,1,1.3.88,3.16,3.16,0,0,1,.23,1.41,5.88,5.88,0,0,1-.11,1.25,1.59,1.59,0,0,1-.39.74A2.22,2.22,0,0,1,126,50a14.85,14.85,0,0,1-1.62.07,8.53,8.53,0,0,1-2.09-.17A1.79,1.79,0,0,1,121,48.16c0-.19,0-.51,0-1h1.34v.2a2.74,2.74,0,0,0,.11.87.76.76,0,0,0,.34.45,1.5,1.5,0,0,0,.73.18h1.1a6.73,6.73,0,0,0,1.21-.08,1,1,0,0,0,.56-.29,2,2,0,0,0,.23-1.2,1.83,1.83,0,0,0-.12-.75,1,1,0,0,0-.83-.44l-1.35-.09c-.77,0-1.25-.07-1.45-.1a2.08,2.08,0,0,1-1.45-.75,2.72,2.72,0,0,1-.37-1.6,2.34,2.34,0,0,1,.69-2,2.66,2.66,0,0,1,1.38-.46c.41,0,.87,0,1.38,0a9.77,9.77,0,0,1,1.84.12,1.68,1.68,0,0,1,1.26,1,3.11,3.11,0,0,1,.19,1.23Z"/></svg>