<?xml version="1.0" encoding="UTF-8" standalone="no"?>
<svg
   xmlns:dc="http://purl.org/dc/elements/1.1/"
   xmlns:cc="http://creativecommons.org/ns#"
   xmlns:rdf="http://www.w3.org/1999/02/22-rdf-syntax-ns#"
   xmlns:svg="http://www.w3.org/2000/svg"
   xmlns="http://www.w3.org/2000/svg"
   viewBox="0 0 232.06 232.06"
   height="232.06"
   width="232.06"
   xml:space="preserve"
   id="svg2"
   version="1.1"><metadata
     id="metadata8"><rdf:RDF><cc:Work
         rdf:about=""><dc:format>image/svg+xml</dc:format><dc:type
           rdf:resource="http://purl.org/dc/dcmitype/StillImage" /></cc:Work></rdf:RDF></metadata><defs
     id="defs6"><clipPath
       id="clipPath18"
       clipPathUnits="userSpaceOnUse"><path
         id="path16"
         d="M 0,174.045 H 174.045 V 0 H 0 Z" /></clipPath></defs><g
     transform="matrix(1.3333333,0,0,-1.3333333,0,232.06)"
     id="g10"><g
       id="g12"><g
         clip-path="url(#clipPath18)"
         id="g14"><g
           transform="translate(57.0126,22.0074)"
           id="g20"><path
             id="path22"
             style="fill:#062038;fill-opacity:1;fill-rule:nonzero;stroke:none"
             d="M 0,0 C -1.578,0.738 -2.301,2.48 -1.519,4.15 -0.728,5.84 1.073,6.399 2.651,5.661 4.229,4.922 4.97,3.172 4.179,1.482 3.397,-0.187 1.577,-0.738 0,0" /></g><g
           transform="translate(71.1083,20.0397)"
           id="g24"><path
             id="path26"
             style="fill:#062038;fill-opacity:1;fill-rule:nonzero;stroke:none"
             d="M 0,0 1.344,7.4 3.925,6.932 2.628,-0.207 c -0.384,-2.117 0.36,-3.294 1.994,-3.591 1.633,-0.297 2.744,0.543 3.129,2.66 l 1.296,7.139 2.581,-0.469 -1.344,-7.4 C 9.665,-5.276 7.306,-6.681 4.201,-6.117 1.115,-5.557 -0.619,-3.408 0,0" /></g><g
           transform="translate(88.7255,13.0153)"
           id="g28"><path
             id="path30"
             style="fill:#062038;fill-opacity:1;fill-rule:nonzero;stroke:none"
             d="m 0,0 h -2.623 l -0.003,12.27 h 2.622 z" /></g><g
           transform="translate(92.0878,25.5807)"
           id="g32"><path
             id="path34"
             style="fill:#062038;fill-opacity:1;fill-rule:nonzero;stroke:none"
             d="M 0,0 10.575,1.839 10.968,-0.422 6.972,-1.116 8.733,-11.248 6.13,-11.7 4.368,-1.568 0.394,-2.261 Z" /></g><g
           transform="translate(116.9999,21.9918)"
           id="g36"><path
             id="path38"
             style="fill:#062038;fill-opacity:1;fill-rule:nonzero;stroke:none"
             d="M 0,0 C -1.579,-0.734 -3.378,-0.171 -4.156,1.501 -4.943,3.19 -4.217,4.93 -2.638,5.665 -1.059,6.4 0.759,5.846 1.546,4.155 2.324,2.483 1.579,0.735 0,0" /></g><g
           transform="translate(112.5361,110.2023)"
           id="g40"><path
             id="path42"
             style="fill:#062038;fill-opacity:1;fill-rule:nonzero;stroke:none"
             d="m 0,0 h 14.046 c -0.815,1.393 -1.438,2.401 -2.397,3.696 h -9.7 C 1.403,4.765 0.463,6.276 0.463,6.276 H 9.617 C 8.325,7.825 6.925,9.285 5.431,10.65 h -10.85 l -11.352,-7.062 9.867,-7.88 z" /></g><g
           transform="translate(66.8803,91.9308)"
           id="g44"><path
             id="path46"
             style="fill:#062038;fill-opacity:1;fill-rule:nonzero;stroke:none"
             d="m 0,0 h -6.804 l -1.277,2.132 h -7.517 c 2.5,3.431 6.711,6.28 10.347,6.28 H 0 Z m 6.306,8.412 c 1.759,0 3.185,-1.426 3.185,-3.185 0,-1.76 -1.426,-3.185 -3.185,-3.185 -1.76,0 -3.186,1.425 -3.186,3.185 0,1.759 1.426,3.185 3.186,3.185 M -18.608,4.147 c -0.982,-1.193 -2.475,-2.856 -2.475,-4.039 0,-0.644 0.522,-1.231 1.223,-1.227 h 9.788 l 1.62,-2.692 h 49.517 l 2.49,3.702 h 22.16 C 65.562,1.369 65.339,2.829 65.05,4.261 H 53.322 C 53.189,5.12 53.037,6.098 52.879,6.839 h 11.573 c -0.462,1.765 -1.03,3.486 -1.691,5.157 H 37.099 L 15.902,28.921 h -26.525 c -1.494,-1.365 -2.895,-2.824 -4.186,-4.374 l 9.175,-0.001 c -0.403,-0.643 -1.101,-1.851 -1.487,-2.578 h -9.699 c -0.959,-1.295 -1.6,-2.3 -2.418,-3.697 H 6.608 l 5.733,-6.275 H -3.737 c -5.95,0 -10.204,-2.45 -14.871,-7.849" /></g><g
           transform="translate(98.6816,61.4557)"
           id="g48"><path
             id="path50"
             style="fill:#062038;fill-opacity:1;fill-rule:nonzero;stroke:none"
             d="m 0,0 c 0,-1.76 -1.426,-3.186 -3.186,-3.186 -1.758,0 -3.184,1.426 -3.184,3.186 0,1.759 1.426,3.186 3.184,3.186 C -1.426,3.186 0,1.759 0,0 m 3.12,3.186 h 5.168 c 3.311,0 7.102,-2.626 9.406,-5.788 H 10.773 L 9.596,-4.569 H 3.12 Z m 30.527,15.512 c 0.24,1.546 0.396,3.122 0.47,4.715 H -2.772 L -29.98,6.491 h -23.111 c 0.751,-1.624 1.533,-3.087 2.465,-4.6 h 10.223 c 0.43,-1.026 1.246,-2.587 1.246,-2.587 h -9.77 c 1.076,-1.53 2.143,-2.875 3.395,-4.257 l 11.451,0.004 2.399,-3.134 h 43.054 l 1.273,2.48 h 8.786 c 0.645,0 1.127,0.541 1.127,1.135 0,1.088 -1.402,2.888 -2.31,3.988 C 16.87,3.604 12.824,6.491 6.7,6.491 h -9.124 l 6.714,6.162 h 28.007 c 0.36,1.218 0.62,2.246 0.881,3.47 H 21.472 c 0.144,0.979 0.259,1.797 0.346,2.575 z" /></g><g
           transform="translate(46.0966,25.3658)"
           id="g52"><path
             id="path54"
             style="fill:#062038;fill-opacity:1;fill-rule:nonzero;stroke:none"
             d="M 0,0 -8.451,6.548 -7.052,8.354 -3.858,5.88 2.415,13.976 4.495,12.363 -1.778,4.269 1.399,1.806 Z" /></g><g
           transform="translate(27.8818,42.5465)"
           id="g56"><path
             id="path58"
             style="fill:#062038;fill-opacity:1;fill-rule:nonzero;stroke:none"
             d="M 0,0 9.432,8.243 11.15,6.277 7.187,2.813 10.92,-1.457 14.883,2.006 16.602,0.04 7.169,-8.203 5.451,-6.238 9.199,-2.962 5.466,1.31 1.718,-1.967 Z" /></g><g
           transform="translate(20.8886,53.9489)"
           id="g60"><path
             id="path62"
             style="fill:#062038;fill-opacity:1;fill-rule:nonzero;stroke:none"
             d="M 0,0 1.977,1.145 4.95,-3.992 7.315,-2.623 4.618,2.037 6.542,3.15 9.239,-1.509 11.816,-0.017 8.843,5.119 10.837,6.274 15.098,-1.087 4.26,-7.36 Z" /></g><g
           transform="translate(23.2055,68.236)"
           id="g64"><path
             id="path66"
             style="fill:#062038;fill-opacity:1;fill-rule:nonzero;stroke:none"
             d="M 0,0 -0.792,2.956 -4.416,0.4 Z M -7.794,0.867 3.063,8.741 3.75,6.181 1.124,4.313 2.339,-0.218 5.541,-0.5 6.217,-3.021 -7.123,-1.636 Z" /></g><g
           transform="translate(19.2284,80.4635)"
           id="g68"><path
             id="path70"
             style="fill:#062038;fill-opacity:1;fill-rule:nonzero;stroke:none"
             d="M 0,0 -0.161,2.401 C -0.249,3.703 -0.985,4.329 -2.023,4.259 -3.082,4.188 -3.729,3.471 -3.641,2.168 L -3.48,-0.233 Z M 2.136,0.144 6.796,0.456 6.97,-2.128 -5.524,-2.966 -5.869,2.182 c -0.176,2.626 1.11,4.469 3.674,4.641 1.994,0.134 3.329,-0.881 3.874,-2.601 L 6.301,7.842 6.498,4.912 2.045,1.507 Z" /></g><g
           transform="translate(13.6513,96.7946)"
           id="g72"><path
             id="path74"
             style="fill:#062038;fill-opacity:1;fill-rule:nonzero;stroke:none"
             d="M 0,0 C 0.155,1.358 0.643,2.391 1.343,3.133 L 3.959,2.834 C 3.019,1.977 2.52,1.027 2.386,-0.149 2.131,-2.379 3.567,-4.022 6.02,-4.302 c 2.433,-0.278 4.202,1 4.456,3.23 0.134,1.176 -0.118,2.211 -0.84,3.259 L 12.251,1.889 C 12.767,1.008 13.009,-0.108 12.854,-1.466 12.442,-5.075 9.574,-7.357 5.722,-6.917 1.87,-6.478 -0.412,-3.609 0,0" /></g><g
           transform="translate(14.8671,103.4489)"
           id="g76"><path
             id="path78"
             style="fill:#062038;fill-opacity:1;fill-rule:nonzero;stroke:none"
             d="M 0,0 3.116,10.226 5.302,9.559 4.124,5.695 13.92,2.709 13.153,0.192 3.357,3.178 2.185,-0.666 Z" /></g><g
           transform="translate(31.9677,113.9762)"
           id="g80"><path
             id="path82"
             style="fill:#062038;fill-opacity:1;fill-rule:nonzero;stroke:none"
             d="m 0,0 -1.098,-2.369 -11.362,5.267 1.098,2.369 z" /></g><g
           transform="translate(25.2768,127.8375)"
           id="g84"><path
             id="path86"
             style="fill:#062038;fill-opacity:1;fill-rule:nonzero;stroke:none"
             d="M 0,0 C 0.734,1.153 1.624,1.868 2.578,2.228 L 4.797,0.815 C 3.577,0.456 2.714,-0.18 2.079,-1.177 0.875,-3.07 1.445,-5.173 3.527,-6.499 c 2.064,-1.313 4.212,-0.939 5.416,0.953 0.636,0.998 0.863,2.038 0.671,3.296 l 2.22,-1.413 C 11.912,-4.68 11.641,-5.789 10.908,-6.941 8.959,-10.003 5.384,-10.798 2.115,-8.718 -1.154,-6.637 -1.948,-3.062 0,0" /></g><g
           transform="translate(38.3447,132.3561)"
           id="g88"><path
             id="path90"
             style="fill:#062038;fill-opacity:1;fill-rule:nonzero;stroke:none"
             d="M 0,0 -5.066,5.514 -3.143,7.281 1.744,1.963 C 3.194,0.385 4.575,0.269 5.792,1.387 7.009,2.505 7.01,3.892 5.56,5.47 L 0.673,10.788 2.596,12.555 7.663,7.042 C 9.996,4.502 9.693,1.785 7.38,-0.341 5.081,-2.453 2.333,-2.539 0,0" /></g><g
           transform="translate(60.185,142.3888)"
           id="g92"><path
             id="path94"
             style="fill:#062038;fill-opacity:1;fill-rule:nonzero;stroke:none"
             d="m 0,0 -1.769,-1.056 -9.357,4.129 4.278,-7.163 -2.154,-1.286 -6.422,10.752 2.101,1.255 8.804,-3.96 -4.058,6.795 2.154,1.287 z" /></g><g
           transform="translate(65.0424,144.2653)"
           id="g96"><path
             id="path98"
             style="fill:#062038;fill-opacity:1;fill-rule:nonzero;stroke:none"
             d="m 0,0 -2.417,-0.99 -4.75,11.594 2.417,0.991 z" /></g><g
           transform="translate(70.6108,146.1051)"
           id="g100"><path
             id="path102"
             style="fill:#062038;fill-opacity:1;fill-rule:nonzero;stroke:none"
             d="m 0,0 -7.649,10.974 2.668,0.683 5.386,-7.973 0.9,9.579 2.608,0.668 L 2.451,0.627 Z" /></g><g
           transform="translate(86.4311,160.9718)"
           id="g104"><path
             id="path106"
             style="fill:#062038;fill-opacity:1;fill-rule:nonzero;stroke:none"
             d="m 0,0 0.154,-2.279 -5.921,-0.401 0.185,-2.727 5.372,0.365 0.15,-2.219 -5.372,-0.364 0.203,-2.971 5.92,0.402 0.157,-2.3 -8.486,-0.575 -0.847,12.493 z" /></g><g
           transform="translate(92.8134,154.922)"
           id="g108"><path
             id="path110"
             style="fill:#062038;fill-opacity:1;fill-rule:nonzero;stroke:none"
             d="M 0,0 2.392,-0.269 C 3.689,-0.415 4.437,0.199 4.553,1.233 4.672,2.288 4.08,3.052 2.782,3.198 L 0.39,3.467 Z m -0.239,-2.128 -0.523,-4.644 -2.576,0.29 1.401,12.448 5.13,-0.577 C 5.809,5.095 7.396,3.5 7.108,0.945 6.884,-1.042 5.647,-2.175 3.855,-2.405 l 2.743,-5.195 -2.92,0.329 -2.56,4.989 z" /></g><g
           transform="translate(101.7265,150.2257)"
           id="g112"><path
             id="path114"
             style="fill:#062038;fill-opacity:1;fill-rule:nonzero;stroke:none"
             d="M 0,0 C 0.831,-1.126 2.039,-2.068 3.425,-2.488 4.636,-2.855 5.666,-2.762 5.95,-1.825 6.187,-1.043 5.769,-0.597 4.971,0.008 L 3.39,1.126 C 1.79,2.25 0.896,3.523 1.5,5.516 2.175,7.742 4.456,8.373 6.8,7.663 8.264,7.219 9.35,6.506 10.147,5.625 L 9.408,3.184 C 8.604,4.259 7.618,5.09 6.232,5.51 5.158,5.836 4.226,5.714 3.977,4.893 3.752,4.151 4.151,3.71 4.909,3.182 L 6.588,1.97 C 8.393,0.677 8.979,-0.695 8.44,-2.472 7.725,-4.835 5.353,-5.417 2.813,-4.648 c -1.601,0.485 -2.865,1.38 -3.559,2.187 z" /></g><g
           transform="translate(113.4609,142.3712)"
           id="g116"><path
             id="path118"
             style="fill:#062038;fill-opacity:1;fill-rule:nonzero;stroke:none"
             d="m 0,0 -2.381,1.075 5.154,11.417 2.38,-1.074 z" /></g><g
           transform="translate(121.2343,152.6842)"
           id="g120"><path
             id="path122"
             style="fill:#062038;fill-opacity:1;fill-rule:nonzero;stroke:none"
             d="m 0,0 9.095,-5.617 -1.201,-1.944 -3.437,2.123 -5.381,-8.713 -2.239,1.383 5.382,8.713 -3.42,2.111 z" /></g><g
           transform="translate(138.4863,140.0636)"
           id="g124"><path
             id="path126"
             style="fill:#062038;fill-opacity:1;fill-rule:nonzero;stroke:none"
             d="m 0,0 2.055,-1.833 -8.57,-2.77 -3.164,-3.545 -1.932,1.725 3.165,3.546 1.811,8.8 2.116,-1.888 -1.264,-5.981 z" /></g><g
           transform="translate(147.5322,125.5568)"
           id="g128"><path
             id="path130"
             style="fill:#062038;fill-opacity:1;fill-rule:nonzero;stroke:none"
             d="m 0,0 c -1.064,1.669 -3.184,1.842 -5.249,0.524 -2.064,-1.317 -2.8,-3.313 -1.735,-4.981 1.075,-1.687 3.206,-1.876 5.27,-0.559 C 0.351,-3.698 1.076,-1.686 0,0 m -8.946,-5.709 c -1.877,2.942 -0.878,6.461 2.27,8.47 3.165,2.02 6.76,1.432 8.638,-1.51 1.877,-2.941 0.906,-6.466 -2.259,-8.486 -3.148,-2.009 -6.771,-1.416 -8.649,1.526" /></g><g
           transform="translate(142.578,113.3087)"
           id="g132"><path
             id="path134"
             style="fill:#062038;fill-opacity:1;fill-rule:nonzero;stroke:none"
             d="M 0,0 11.633,4.638 14.722,-3.111 12.6,-3.957 10.471,1.385 7.516,0.208 9.486,-4.737 7.383,-5.576 5.412,-0.631 0.959,-2.406 Z" /></g><g
           transform="translate(148.537,89.1051)"
           id="g136"><path
             id="path138"
             style="fill:#062038;fill-opacity:1;fill-rule:nonzero;stroke:none"
             d="M 0,0 -0.243,2.046 7.344,8.902 -0.94,7.919 -1.235,10.411 11.2,11.885 11.488,9.455 4.281,3.034 l 7.858,0.932 0.296,-2.49 z" /></g><g
           transform="translate(158.4716,80.6901)"
           id="g140"><path
             id="path142"
             style="fill:#062038;fill-opacity:1;fill-rule:nonzero;stroke:none"
             d="M 0,0 C 0.174,1.971 -1.399,3.4 -3.837,3.615 -6.276,3.83 -8.075,2.7 -8.249,0.729 -8.425,-1.263 -6.854,-2.713 -4.415,-2.927 -1.978,-3.143 -0.177,-1.99 0,0 m -10.565,0.933 c 0.305,3.474 3.243,5.651 6.96,5.323 3.739,-0.33 6.228,-2.985 5.921,-6.46 -0.306,-3.475 -3.224,-5.674 -6.962,-5.345 -3.719,0.329 -6.226,3.008 -5.919,6.482" /></g><g
           transform="translate(152.9677,69.7115)"
           id="g144"><path
             id="path146"
             style="fill:#062038;fill-opacity:1;fill-rule:nonzero;stroke:none"
             d="m 0,0 -0.677,-2.31 c -0.367,-1.253 0.11,-2.094 1.108,-2.386 1.018,-0.299 1.872,0.152 2.239,1.405 L 3.348,-0.98 Z M -2.056,0.602 -6.538,1.915 -5.81,4.4 6.209,0.88 4.758,-4.073 c -0.739,-2.525 -2.583,-3.812 -5.05,-3.09 -1.919,0.562 -2.822,1.975 -2.739,3.778 l -5.589,-1.806 0.826,2.819 5.354,1.662 z" /></g><g
           transform="translate(151.0722,50.234)"
           id="g148"><path
             id="path150"
             style="fill:#062038;fill-opacity:1;fill-rule:nonzero;stroke:none"
             d="m 0,0 -8.413,2.209 6.36,-5.898 -1.251,-2.246 -9.357,8.945 1.162,2.085 8.29,-2.094 -6.146,5.944 1.16,2.086 L 4.338,7.79 3.057,5.49 -5.297,7.807 0.992,1.783 Z" /></g><g
           transform="translate(137.8573,44.0563)"
           id="g152"><path
             id="path154"
             style="fill:#062038;fill-opacity:1;fill-rule:nonzero;stroke:none"
             d="m 0,0 -2.03,-2.29 4.128,-1.617 z m 3.568,-6.984 -12.551,4.725 1.759,1.985 3.004,-1.164 3.114,3.509 -1.529,2.829 1.734,1.954 6.189,-11.899 z" /></g><g
           transform="translate(130.4609,27.234)"
           id="g156"><path
             id="path158"
             style="fill:#062038;fill-opacity:1;fill-rule:nonzero;stroke:none"
             d="m 0,0 -2.159,-1.71 -1.26,8.917 -2.951,3.725 2.031,1.608 2.951,-3.725 8.36,-3.293 -2.223,-1.76 -5.676,2.27 z" /></g><g
           transform="translate(67.4472,70.2408)"
           id="g160"><path
             id="path162"
             style="fill:#062038;fill-opacity:1;fill-rule:nonzero;stroke:none"
             d="M 0,0 12.565,7.743 1.494,14.628 h -27.476 c 0.082,-1.519 0.226,-3.239 0.457,-4.715 H -13.7 c 0.127,-1.146 0.348,-2.575 0.348,-2.575 h -11.709 c 0.262,-1.217 0.527,-2.292 0.883,-3.47 h 17.963 z" /></g></g></g></g></svg>